<?xml version="1.0" standalone="no"?>
<!DOCTYPE svg PUBLIC "-//W3C//DTD SVG 20010904//EN"
 "http://www.w3.org/TR/2001/REC-SVG-20010904/DTD/svg10.dtd">
<svg version="1.0" xmlns="http://www.w3.org/2000/svg"
 width="500.000000pt" height="500.000000pt" viewBox="0 0 500.000000 500.000000"
 preserveAspectRatio="xMidYMid meet">
<metadata>
Created by potrace 1.14, written by Peter Selinger 2001-2017
</metadata>
<g transform="translate(0.000000,500.000000) scale(0.100000,-0.100000)"
fill="#000000" stroke="none">
<path d="M2360 4510 c-30 -4 -68 -14 -85 -22 -16 -9 -50 -19 -75 -23 -25 -4
-63 -18 -86 -31 -22 -13 -48 -24 -57 -24 -8 0 -29 -11 -45 -25 -17 -14 -33
-25 -37 -25 -4 0 -22 -12 -41 -27 -18 -16 -51 -41 -73 -58 -72 -54 -217 -240
-236 -305 -4 -14 -15 -36 -25 -50 -20 -28 -57 -180 -70 -285 -5 -38 -9 -149
-9 -246 -1 -129 -4 -179 -13 -187 -7 -5 -62 -12 -123 -14 -72 -3 -122 -10
-145 -21 -19 -8 -46 -18 -60 -21 -34 -7 -64 -30 -135 -102 -49 -51 -64 -75
-85 -135 l-25 -74 -3 -985 -3 -985 27 -85 c22 -71 36 -96 82 -148 30 -35 66
-68 79 -73 13 -5 37 -19 54 -31 l31 -23 1308 0 1308 0 29 21 c16 12 38 24 51
28 27 9 88 68 125 123 62 90 60 64 64 1126 4 949 3 970 -17 1064 -21 98 -35
124 -102 191 -57 57 -93 82 -130 88 -18 4 -44 14 -58 22 -18 12 -57 17 -135
20 -81 3 -115 8 -127 20 -16 13 -18 36 -18 196 -1 268 -38 465 -111 586 -5 8
-18 33 -30 55 -37 68 -138 182 -220 248 -87 69 -160 117 -179 117 -7 0 -32 11
-55 25 -24 13 -62 27 -86 31 -24 3 -54 12 -66 20 -48 30 -252 43 -393 24z
m311 -389 c20 -11 54 -23 75 -27 40 -7 46 -11 144 -88 108 -85 179 -196 204
-322 11 -57 16 -137 16 -272 0 -186 -1 -191 -22 -206 -20 -14 -91 -16 -575
-16 -334 0 -562 4 -577 10 l-26 10 0 213 c0 187 2 220 20 270 11 31 20 64 20
74 1 38 114 189 177 236 24 17 60 44 80 60 20 15 45 27 57 27 11 0 44 11 71
25 45 22 63 24 175 25 105 0 131 -3 161 -19z m31 -1957 c24 -15 68 -55 99 -87
48 -50 59 -69 73 -122 28 -111 12 -258 -34 -315 -11 -14 -25 -35 -32 -47 -6
-13 -15 -23 -20 -23 -4 0 -18 -11 -30 -25 -11 -13 -37 -30 -57 -36 -20 -6 -44
-19 -55 -28 -13 -12 -44 -17 -122 -19 -97 -4 -107 -2 -148 22 -25 14 -51 26
-59 26 -8 0 -43 28 -78 63 -46 47 -67 78 -81 118 -45 128 -45 150 -5 272 19
59 31 77 83 125 117 109 125 112 301 108 116 -3 125 -4 165 -32z"/>
</g>
</svg>
