<?xml version="1.0" standalone="no"?>
<!DOCTYPE svg PUBLIC "-//W3C//DTD SVG 20010904//EN"
 "http://www.w3.org/TR/2001/REC-SVG-20010904/DTD/svg10.dtd">
<svg version="1.0" xmlns="http://www.w3.org/2000/svg"
 width="800.000000pt" height="800.000000pt" viewBox="0 0 800.000000 800.000000"
 preserveAspectRatio="xMidYMid meet">
<metadata>
Created by potrace 1.14, written by Peter Selinger 2001-2017
</metadata>
<g transform="translate(0.000000,800.000000) scale(0.100000,-0.100000)"
fill="#000000" stroke="none">
<path d="M0 4000 l0 -4000 4000 0 4000 0 0 4000 0 4000 -4000 0 -4000 0 0
-4000z m4010 3350 c0 -5 -2 -10 -4 -10 -3 0 -8 5 -11 10 -3 6 -1 10 4 10 6 0
11 -4 11 -10z m-88 -18 c-10 -3 -10 -7 -1 -18 9 -11 8 -14 -4 -14 -8 0 -14 -7
-13 -15 3 -21 16 -31 16 -13 0 16 28 33 38 23 3 -3 0 -5 -6 -5 -16 0 -43 -55
-36 -73 2 -7 -2 -20 -11 -27 -18 -15 -20 -41 -3 -58 9 -9 8 -15 -7 -26 -13
-10 -20 -30 -23 -74 -3 -43 -8 -59 -17 -56 -7 3 -15 -2 -18 -10 -8 -19 -12
-19 51 -1 102 31 221 42 367 34 250 -13 431 -80 645 -239 99 -73 278 -263 349
-370 132 -198 233 -448 260 -645 6 -42 11 -234 11 -428 0 -322 -2 -355 -19
-393 -34 -75 -129 -123 -213 -109 -46 8 -110 60 -126 103 -7 17 -13 172 -15
407 -5 404 -7 427 -61 582 -51 151 -180 357 -299 481 -68 71 -231 189 -320
231 -96 46 -221 88 -289 97 -47 7 -48 6 -49 -22 l-2 -29 -4 28 c-3 17 -10 27
-21 27 -12 0 -13 -3 -5 -8 8 -5 9 -13 3 -22 -6 -8 -10 -19 -10 -25 0 -5 5 -3
10 5 7 11 10 6 9 -20 0 -29 -2 -31 -9 -15 -5 12 -9 14 -9 6 -1 -8 -4 -11 -8
-7 -4 3 -6 25 -4 47 1 23 -2 38 -7 35 -5 -3 -7 -17 -4 -31 2 -14 1 -25 -4 -24
-21 4 -26 -2 -14 -17 11 -13 10 -16 -8 -21 -12 -3 -24 -14 -27 -24 -5 -14 -13
-17 -33 -13 -35 6 -62 -10 -45 -27 10 -10 14 -9 19 4 8 23 21 21 27 -3 3 -11
1 -17 -4 -14 -6 3 -17 0 -25 -7 -10 -9 -18 -9 -22 -2 -5 7 -18 6 -42 -2 -30
-10 -32 -13 -17 -22 17 -9 17 -11 2 -23 -12 -10 -24 -11 -50 -2 -19 5 -35 6
-35 2 0 -5 5 -10 12 -12 6 -2 8 -10 4 -17 -5 -7 -15 -10 -23 -7 -8 3 -11 1 -8
-4 3 -6 1 -10 -4 -10 -6 0 -11 5 -11 11 0 6 -6 9 -12 6 -7 -2 -12 -11 -10 -19
1 -9 -5 -19 -14 -22 -11 -4 -15 -2 -11 8 4 10 1 13 -7 10 -8 -3 -17 0 -21 6
-5 8 -11 8 -21 -1 -7 -6 -11 -15 -8 -20 2 -5 -7 -11 -22 -15 -20 -5 -31 -2
-41 11 -12 18 -13 18 -13 -3 0 -12 -3 -21 -7 -21 -34 6 -48 -26 -15 -34 12 -3
9 -5 -8 -6 -25 -2 -25 -2 5 -16 24 -12 25 -13 5 -8 -14 4 -34 7 -45 7 -11 1
-24 4 -30 7 -5 3 -54 5 -108 4 -97 -2 -99 -3 -118 -31 -44 -65 -91 -169 -119
-267 l-30 -104 0 -352 c0 -379 -2 -392 -53 -440 -16 -14 -43 -25 -70 -28 -84
-10 -149 43 -167 136 -9 47 -5 524 4 606 4 31 3 34 -3 15 -5 -14 -10 -38 -11
-55 -1 -16 -4 -24 -7 -17 -9 23 -23 12 -17 -13 4 -15 2 -25 -5 -25 -6 0 -11 9
-11 19 0 19 -2 19 -42 -4 -32 -18 -45 -21 -51 -12 -5 7 -6 4 -3 -9 5 -16 0
-24 -19 -32 -15 -7 -23 -16 -20 -22 3 -5 -4 -14 -15 -20 -11 -6 -20 -19 -20
-30 0 -15 -6 -18 -30 -15 -17 2 -28 0 -25 -5 3 -4 -2 -13 -10 -20 -8 -7 -15
-18 -15 -25 0 -7 -7 -15 -15 -19 -8 -3 -15 -1 -15 4 0 6 -9 10 -19 10 -14 0
-18 -5 -14 -19 3 -10 -2 -21 -10 -24 -48 -18 -49 336 -2 518 14 55 35 129 47
165 12 36 23 67 23 70 4 24 18 50 27 50 6 0 9 3 5 6 -14 14 129 244 223 359
59 71 191 202 245 242 153 114 306 210 349 219 10 2 23 7 30 12 14 11 134 59
209 83 104 33 141 42 182 40 30 0 36 2 25 9 -11 8 -8 9 13 4 18 -4 27 -2 27 6
0 7 6 6 16 -4 8 -9 21 -16 27 -16 7 0 6 4 -3 10 -13 8 -12 10 3 10 9 0 17 5
17 11 0 5 5 7 12 3 9 -6 9 -9 0 -12z m45 -8 c-3 -3 -12 -4 -19 -1 -8 3 -5 6 6
6 11 1 17 -2 13 -5z m-43 -159 c-4 -8 -10 -12 -15 -9 -11 6 -2 24 11 24 5 0 7
-7 4 -15z m-299 -825 c13 -6 15 -9 5 -9 -8 0 -22 4 -30 9 -18 12 -2 12 25 0z
m652 -47 c115 -35 194 -84 293 -183 66 -67 95 -105 133 -177 76 -146 87 -206
87 -471 0 -209 -1 -224 -17 -217 -224 85 -814 281 -894 295 -90 17 -199 3
-293 -35 -18 -8 -18 -1 -13 206 3 142 10 231 19 264 38 129 143 250 272 311
61 29 91 37 163 42 94 8 123 4 250 -35z m1680 -555 c-3 -8 -6 -5 -6 6 -1 11 2
17 5 13 3 -3 4 -12 1 -19z m-2261 -531 c16 -8 110 -40 209 -72 99 -32 338
-111 530 -175 l350 -116 3 -141 3 -141 27 -10 c51 -20 337 -111 397 -127 101
-26 93 -28 400 120 99 48 217 104 263 125 l82 39 0 39 0 39 43 -10 c79 -18
220 -57 233 -65 9 -5 -179 -104 -511 -270 -425 -212 -532 -262 -565 -262 -40
0 -128 27 -610 185 -327 107 -599 192 -675 210 -35 9 -111 15 -182 15 -99 0
-135 -4 -189 -22 -36 -12 -69 -29 -72 -37 -7 -19 -23 -37 -37 -40 -5 -1 -10
-10 -9 -20 0 -16 -4 -17 -30 -10 -40 12 -55 11 -36 -1 8 -5 11 -10 6 -10 -5 0
-17 6 -25 14 -13 11 -27 12 -75 4 -85 -15 -187 0 -401 60 -18 5 -19 4 -5 -14
8 -10 19 -22 25 -26 5 -4 6 -10 3 -14 -4 -3 -19 7 -33 22 -14 16 -24 22 -23
14 3 -16 -4 -16 -37 -4 -17 7 -18 6 -7 -8 15 -18 10 -23 -35 -33 -18 -3 -33
-11 -33 -16 0 -5 -10 -9 -23 -9 -13 0 -29 -6 -35 -12 -10 -10 -15 -10 -21 1
-6 9 -11 2 -15 -23 -4 -20 -11 -36 -16 -36 -9 0 -14 15 -11 33 1 5 -3 6 -9 2
-5 -3 -10 -13 -10 -22 0 -13 -9 -15 -47 -10 l-48 6 40 -20 40 -20 -37 6 c-38
6 -53 -7 -22 -19 8 -3 12 -11 9 -17 -4 -6 -13 -8 -21 -5 -7 3 -16 1 -19 -4 -7
-11 4 -13 51 -10 17 1 36 -6 44 -15 15 -18 14 -20 -22 -29 -21 -5 -28 -3 -28
8 0 8 10 17 23 19 21 4 20 4 -3 5 -14 1 -36 -5 -50 -14 -21 -13 -22 -14 -4 -9
15 4 24 0 28 -11 4 -12 13 -14 32 -10 14 4 23 3 20 -2 -3 -5 0 -9 7 -10 21 -2
41 -7 87 -25 121 -46 471 -148 545 -159 117 -17 186 -2 323 67 181 92 305 94
552 10 451 -155 1108 -366 1154 -371 l56 -7 -1 -911 c-1 -501 -4 -1032 -8
-1180 l-6 -268 -150 -72 c-83 -39 -202 -95 -265 -125 -63 -30 -178 -84 -255
-120 l-140 -66 -100 1 c-97 0 -107 3 -290 66 -436 151 -956 328 -1345 459
-228 77 -426 147 -440 157 -14 10 -33 34 -42 53 -17 32 -18 108 -19 1139 -1
612 -5 1087 -10 1065 -4 -22 -8 -67 -8 -99 -1 -92 -10 -61 -13 45 l-3 95 -36
17 c-19 9 -42 17 -50 17 -8 0 1 -8 19 -17 34 -16 38 -36 9 -41 -10 -2 -17 3
-17 12 0 19 -1 19 -34 6 -31 -11 -34 -30 -6 -30 26 0 26 -17 -1 -25 -16 -5
-18 -10 -8 -21 9 -11 7 -14 -14 -14 -14 0 -31 8 -36 18 -8 13 -10 9 -11 -23 0
-23 5 -46 12 -53 9 -9 5 -9 -16 0 -22 11 -26 18 -23 41 2 15 -1 31 -6 34 -6 4
-8 -11 -5 -41 3 -25 2 -46 -3 -46 -13 0 -11 -34 3 -48 7 -7 8 -12 2 -12 -6 0
-19 9 -29 20 -14 16 -15 23 -6 34 10 12 9 13 -8 9 -12 -3 -21 -12 -21 -21 0
-8 -8 -21 -17 -28 -15 -11 -16 -13 -2 -14 8 0 20 5 27 12 7 7 12 9 12 4 0 -11
-23 -31 -37 -32 -28 -2 -33 -4 -33 -15 0 -5 4 -8 8 -5 5 3 9 -1 9 -9 0 -8 -4
-12 -9 -9 -4 3 -8 1 -8 -5 0 -5 8 -15 18 -20 9 -6 12 -11 5 -11 -6 0 -19 10
-27 22 -15 21 -15 21 -11 -15 5 -40 5 -40 -19 -31 -17 6 -23 44 -7 44 5 0 9
11 9 25 0 14 -6 25 -12 25 -6 0 -5 4 3 9 8 5 10 14 6 21 -15 24 -20 139 -20
485 0 340 1 352 24 425 47 149 145 261 293 334 51 25 109 51 128 59 19 8 65
29 102 46 37 17 72 31 78 31 6 0 11 -34 12 -87 0 -49 2 -92 3 -98 2 -5 3 -17
4 -26 1 -11 21 -22 64 -33 34 -10 159 -49 277 -87 118 -39 242 -73 275 -76 70
-6 104 5 384 133 l174 79 -7 146 c-3 80 -4 148 -1 151 7 7 81 -15 121 -35z
m-191 -686 c-6 -5 -25 10 -25 20 0 5 6 4 14 -3 8 -7 12 -15 11 -17z m42 23
c-3 -3 -12 -4 -19 -1 -8 3 -5 6 6 6 11 1 17 -2 13 -5z m-791 -102 c-5 -8 -66
-4 -66 4 0 2 16 4 36 4 19 0 33 -4 30 -8z m3402 -1174 c-1 -465 -7 -850 -11
-854 -4 -5 -12 -2 -17 5 -6 11 -9 10 -13 -5 -4 -16 -5 -16 -6 3 -1 30 -21 40
-22 11 -1 -17 -3 -18 -6 -5 -2 9 -12 17 -21 18 -9 0 -30 2 -47 4 -16 2 -24 2
-17 -1 6 -3 12 -12 12 -20 0 -16 -26 -19 -35 -4 -4 6 -11 8 -16 4 -6 -3 -3
-12 8 -20 10 -7 15 -14 11 -15 -24 -5 -34 -4 -41 6 -5 5 -6 0 -2 -12 4 -17 2
-21 -12 -19 -10 2 -26 -8 -36 -21 -13 -16 -25 -21 -40 -18 -12 3 -31 -1 -42
-9 -11 -9 -14 -16 -7 -16 6 0 12 -5 12 -11 0 -7 -10 -9 -27 -5 -20 5 -24 4
-13 -3 12 -8 9 -12 -13 -20 -15 -6 -27 -15 -27 -20 0 -6 -12 -10 -27 -10 -57
0 -78 -7 -76 -27 2 -28 -21 -38 -29 -11 -3 12 -6 403 -7 869 l-1 847 118 57
c64 31 191 92 282 135 l165 78 3 -32 c2 -18 2 -413 0 -879z m-4153 583 c-3 -6
-11 -8 -17 -5 -6 4 -5 9 3 15 16 10 23 4 14 -10z m-75 -125 c0 -3 -4 -8 -10
-11 -5 -3 -10 -1 -10 4 0 6 5 11 10 11 6 0 10 -2 10 -4z m-103 -108 c-3 -7 -5
-2 -5 12 0 14 2 19 5 13 2 -7 2 -19 0 -25z m-23 -94 c3 -8 2 -12 -4 -9 -6 3
-10 10 -10 16 0 14 7 11 14 -7z m-37 -1756 c-3 -8 -6 -5 -6 6 -1 11 2 17 5 13
3 -3 4 -12 1 -19z m4483 -434 c0 -2 -9 -4 -21 -4 -11 0 -18 4 -14 10 5 8 35 3
35 -6z m-2463 -630 c-5 -5 -57 13 -57 20 0 3 14 0 31 -6 16 -6 28 -12 26 -14z
m103 -34 c8 -5 11 -10 5 -10 -5 0 -17 5 -25 10 -8 5 -10 10 -5 10 6 0 17 -5
25 -10z m130 -44 c0 -3 -4 -8 -10 -11 -5 -3 -10 -1 -10 4 0 6 5 11 10 11 6 0
10 -2 10 -4z"/>
<path d="M3486 6375 c-3 -8 -1 -15 4 -15 6 0 10 7 10 15 0 8 -2 15 -4 15 -2 0
-6 -7 -10 -15z"/>
<path d="M3516 6365 c-3 -8 -1 -15 4 -15 6 0 10 7 10 15 0 8 -2 15 -4 15 -2 0
-6 -7 -10 -15z"/>
<path d="M3428 6353 c7 -3 16 -2 19 1 4 3 -2 6 -13 5 -11 0 -14 -3 -6 -6z"/>
<path d="M2576 5683 c-6 -14 -5 -15 5 -6 7 7 10 15 7 18 -3 3 -9 -2 -12 -12z"/>
<path d="M2720 4536 c0 -2 9 -6 20 -9 11 -3 18 -1 14 4 -5 9 -34 13 -34 5z"/>
<path d="M2695 4500 c-18 -8 -17 -9 8 -9 15 -1 27 4 27 9 0 12 -8 12 -35 0z"/>
<path d="M3332 4496 c-33 -19 -33 -21 2 -23 25 -1 32 3 32 18 0 22 -2 22 -34
5z"/>
<path d="M2181 4114 c0 -11 3 -14 6 -6 3 7 2 16 -1 19 -3 4 -6 -2 -5 -13z"/>
<path d="M1988 3923 c7 -3 16 -2 19 1 4 3 -2 6 -13 5 -11 0 -14 -3 -6 -6z"/>
<path d="M1825 3788 c5 -12 1 -20 -9 -24 -19 -7 -22 -25 -3 -21 18 3 30 38 17
51 -8 8 -9 6 -5 -6z"/>
<path d="M3804 3444 c-57 -20 -114 -72 -144 -130 -22 -43 -25 -62 -25 -149 0
-92 3 -105 31 -165 18 -36 50 -89 71 -117 l40 -53 -14 -52 c-12 -48 -31 -144
-109 -553 -12 -66 -21 -121 -20 -123 2 -1 29 10 61 24 65 30 113 32 172 9 21
-8 90 -28 153 -46 63 -17 119 -37 125 -44 5 -7 44 -25 85 -40 41 -14 80 -31
87 -37 8 -6 16 -8 19 -5 7 6 1 41 -75 464 l-49 271 45 47 c92 97 117 216 73
356 -74 241 -335 411 -526 343z"/>
</g>
</svg>
